HIERARCHY
ROOT Hips
{
	OFFSET 0.00000 0.00000 0.00000
	CHANNELS 6 Xposition Yposition Zposition Zrotation Yrotation Xrotation 
	JOINT LHipJoint
	{
		OFFSET 0 0 0
		CHANNELS 3 Zrotation Yrotation Xrotation
		JOINT LeftHip
		{
			OFFSET 1.37959 -1.78713 0.86582
			CHANNELS 3 Zrotation Yrotation Xrotation
			JOINT LeftKnee
			{
				OFFSET 2.54611 -6.99539 0.00000
				CHANNELS 3 Zrotation Yrotation Xrotation
				JOINT LeftAnkle
				{
					OFFSET 2.59951 -7.14211 0.00000
					CHANNELS 3 Zrotation Yrotation Xrotation
					JOINT LeftToe
					{
						OFFSET 0.18493 -0.50810 1.96120
						CHANNELS 3 Zrotation Yrotation Xrotation
						End Site
						{
							OFFSET 0.00000 -0.00000 1.02054
						}
					}
				}
			}
		}
	}
	JOINT RHipJoint
	{
		OFFSET 0 0 0
		CHANNELS 3 Zrotation Yrotation Xrotation
		JOINT RightHip
		{
			OFFSET -1.33564 -1.78713 0.86582
			CHANNELS 3 Zrotation Yrotation Xrotation
			JOINT RightKnee
			{
				OFFSET -2.52705 -6.94302 0.00000
				CHANNELS 3 Zrotation Yrotation Xrotation
				JOINT RightAnkle
				{
					OFFSET -2.55964 -7.03257 0.00000
					CHANNELS 3 Zrotation Yrotation Xrotation
					JOINT RightToe
					{
						OFFSET -0.25804 -0.70896 2.12109
						CHANNELS 3 Zrotation Yrotation Xrotation
						End Site
						{
							OFFSET -0.00000 -0.00000 1.11821
						}
					}
				}
			}
		}
	}
	JOINT lowerback
	{
		OFFSET 0 0 0
		CHANNELS 3 Zrotation Yrotation Xrotation
		JOINT Chest
		{
			OFFSET -0.02031 2.24248 -0.18900
			CHANNELS 3 Zrotation Yrotation Xrotation
			JOINT Chest2
			{
				OFFSET 0.08342 2.24689 -0.03799
				CHANNELS 3 Zrotation Yrotation Xrotation
				JOINT lowerneck
				{
					OFFSET 0 0 0
					CHANNELS 3 Zrotation Yrotation Xrotation
					JOINT Neck
					{
						OFFSET -0.11607 1.55844 0.24628
						CHANNELS 3 Zrotation Yrotation Xrotation
						JOINT Head
						{
							OFFSET 0.06877 1.60174 -0.17013
							CHANNELS 3 Zrotation Yrotation Xrotation
							End Site
							{
								OFFSET 0.03358 1.61266 -0.08543
							}
						}
					}
				}
				JOINT LeftCollar
				{
					OFFSET 0 0 0
					CHANNELS 3 Zrotation Yrotation Xrotation
					JOINT LeftShoulder
					{
						OFFSET 3.47537 0.55866 -0.72348
CHANNELS 3 Zrotation Xrotation Yrotation
						JOINT LeftElbow
						{
OFFSET 0 -5.381540 0.000000
CHANNELS 3 Zrotation Xrotation Yrotation
							JOINT LeftWrist
							{
OFFSET 0 -3.333120 0.000000
CHANNELS 3 Zrotation Xrotation Yrotation
								JOINT lhand
								{
									OFFSET 0 0 0
CHANNELS 3 Zrotation Xrotation Yrotation
									JOINT LFingers
									{
OFFSET 0 -0.710790 0.000000
CHANNELS 3 Zrotation Xrotation Yrotation
										End Site
										{
OFFSET 0 -0.573060 0.000000
										}
									}
								}
								JOINT LThumb
								{
OFFSET 0 0.000000 0.000000
CHANNELS 3 Zrotation Xrotation Yrotation
									End Site
									{
OFFSET 0 -0.581810 0.581810
									}
								}
							}
						}
					}
				}
				JOINT RightCollar
				{
					OFFSET 0 0 0
					CHANNELS 3 Zrotation Yrotation Xrotation
					JOINT RightShoulder
					{
						OFFSET -3.27844 0.90739 -0.35708
CHANNELS 3 Zrotation Xrotation Yrotation
						JOINT RightElbow
						{
OFFSET 0 -5.169540 0.000000
CHANNELS 3 Zrotation Xrotation Yrotation
							JOINT RightWrist
							{
OFFSET 0 -3.382870 0.000000
CHANNELS 3 Zrotation Xrotation Yrotation
								JOINT rhand
								{
									OFFSET 0 0 0
CHANNELS 3 Zrotation Xrotation Yrotation
									JOINT RFingers
									{
OFFSET 0 -0.817970 0.000000
CHANNELS 3 Zrotation Xrotation Yrotation
										End Site
										{
OFFSET 0 -0.659470 0.000000
										}
									}
								}
								JOINT RThumb
								{
OFFSET 0 0.000000 0.000000
CHANNELS 3 Zrotation Xrotation Yrotation
									End Site
									{
OFFSET 0 -0.669530 0.669530
									}
								}
							}
						}
					}
				}
			}
		}
	}
}
MOTION
Frames: 6
Frame Time: 0.008333333333333333
14.163208 16.447961 -0.890491 -427.618978 -74.064795 -287.199866 0.000000 0.000000 0.000000 15.532133 -13.250570 -37.060894 12.997063 18.771349 69.106843 1.462751 3.269723 -24.209258 0.215526 -2.847237 -7.863494 0.000000 0.000000 0.000000 24.377595 9.880748 -24.758259 -6.026744 -14.454098 45.088732 -1.340921 10.819072 -20.941166 -0.125380 2.278998 -6.277505 -3.997241 3.846944 16.677298 -0.555340 4.177401 1.579455 0.696488 2.086460 -7.892293 -19.503913 -17.550819 -5.946778 28.214686 -25.074557 1.892642 8.921005 -11.973968 7.999908 0.000000 0.000000 0.000000 55.752992 4.178273 25.695886 10.937482 -18.192297 1.756397 3.987090 15.926010 -26.352180 0.000000 0.000000 0.000000 -7.125000 0.000000 0.000000 -27.163355 54.243309 6.537190 0.000000 0.000000 0.000000 -65.749095 -23.896829 -62.759994 -16.822831 -26.622673 -4.008120 -7.138210 -58.016567 17.749256 0.000000 0.000000 0.000000 7.125000 0.000000 0.000000 19.760955 46.845684 -0.966211
14.013259 16.456119 -0.653063 -428.008738 -75.192396 -286.766945 0.000000 0.000000 0.000000 15.228705 -14.205087 -36.290900 11.998544 18.380963 65.974028 1.274838 2.816153 -22.497818 0.431593 -4.186920 -11.607393 0.000000 0.000000 0.000000 22.596097 9.920742 -23.914798 -5.966689 -14.395956 44.847729 -1.371895 10.885725 -21.178017 -0.124369 2.264089 -6.236433 -4.711263 3.804095 16.831121 -0.767044 3.954515 1.680391 0.918667 1.992560 -7.891837 -19.271044 -17.530560 -5.883599 27.878618 -25.046171 2.063583 8.791174 -11.961187 7.942109 0.000000 0.000000 0.000000 55.802353 3.720348 25.686628 10.828485 -18.024867 1.722495 3.810527 16.298599 -26.113405 0.000000 0.000000 0.000000 -7.125000 0.000000 0.000000 -27.172928 53.999194 6.372805 0.000000 0.000000 0.000000 -66.152903 -24.020593 -64.415387 -16.510313 -26.207530 -3.868674 -7.878578 -56.414199 16.398640 0.000000 0.000000 0.000000 7.125000 0.000000 0.000000 18.560625 45.666112 -0.316005
13.857045 16.451096 -0.422019 -429.756503 -76.043918 -285.087357 0.000000 0.000000 0.000000 15.281835 -14.965099 -35.208120 11.001547 17.929852 62.779118 1.110687 1.930833 -20.688407 0.642208 -5.108342 -14.221925 0.000000 0.000000 0.000000 21.318827 10.197866 -23.026567 -5.942728 -14.372563 44.751226 -1.423909 10.528222 -21.517597 -0.200691 2.824488 -7.794952 -5.094023 3.793475 16.918535 -0.932986 3.843276 1.792509 0.982133 1.941708 -7.826391 -19.019041 -17.450097 -5.700628 27.595242 -24.952112 2.185800 8.704248 -11.929628 7.840474 0.000000 0.000000 0.000000 56.040220 3.461563 25.148492 10.778086 -17.947275 1.706942 3.871598 16.373931 -25.798665 0.000000 0.000000 0.000000 -7.125000 0.000000 0.000000 -26.908523 53.731088 6.120830 0.000000 0.000000 0.000000 -66.329472 -23.858246 -65.163340 -16.354470 -25.998860 -3.800025 -9.619344 -55.955249 14.473713 0.000000 0.000000 0.000000 7.125000 0.000000 0.000000 16.637817 43.875378 -0.016029
13.696219 16.436144 -0.183906 -433.335367 -76.501381 -281.320997 0.000000 0.000000 0.000000 15.870853 -15.579186 -34.140835 10.036425 17.429339 59.608792 0.988597 1.069480 -19.202964 0.931163 -6.129088 -17.165778 0.000000 0.000000 0.000000 20.576225 10.877552 -22.507277 -5.961429 -14.390830 44.826646 -1.482420 9.595991 -21.854567 -0.426869 4.182586 -11.592622 -4.976100 3.742291 16.616234 -1.010608 3.812741 1.758894 0.856033 1.922597 -7.681131 -18.990922 -17.341726 -5.217618 27.403364 -24.838657 2.212515 8.708730 -11.916641 7.699274 0.000000 0.000000 0.000000 56.288117 3.563924 24.134494 10.829432 -18.026295 1.722778 4.126331 16.109313 -25.541312 0.000000 0.000000 0.000000 -7.125000 0.000000 0.000000 -26.501472 53.548163 5.894265 0.000000 0.000000 0.000000 -66.477104 -23.642511 -65.085827 -16.244710 -25.851229 -3.752112 -19.497998 -56.562118 4.688255 0.000000 0.000000 0.000000 7.125000 0.000000 0.000000 5.943183 34.898649 1.468922
13.525253 16.405185 0.055463 -437.361758 -76.597890 -277.112139 0.000000 0.000000 0.000000 16.688411 -16.142068 -32.876102 9.176061 16.915836 56.691562 0.975539 0.236788 -18.761496 1.823524 -8.440285 -24.086828 0.000000 0.000000 0.000000 20.204718 11.274225 -22.237813 -6.059494 -14.485696 45.219859 -1.515455 8.414017 -22.041272 -0.814375 5.729668 -16.009285 -4.539043 3.664288 16.206157 -0.861954 3.833496 1.774892 0.789099 1.922511 -7.419882 -19.464299 -17.352276 -4.939766 27.266210 -24.866417 2.407263 8.745310 -11.943882 7.756695 0.000000 0.000000 0.000000 56.301607 3.415788 23.862349 10.785156 -17.958151 1.709115 4.331282 16.517660 -25.324772 0.000000 0.000000 0.000000 -7.125000 0.000000 0.000000 -26.170350 53.391552 5.708598 0.000000 0.000000 0.000000 -67.273648 -23.804743 -66.439978 -15.862998 -25.334181 -3.587372 -15.389540 -54.788552 8.319271 0.000000 0.000000 0.000000 7.125000 0.000000 0.000000 9.895636 38.412920 1.579699
13.337801 16.381713 0.285758 -438.977190 -77.642144 -275.694638 0.000000 0.000000 0.000000 15.984524 -17.192738 -31.012940 8.414086 16.409215 54.031006 1.103977 -1.055936 -19.540407 2.731162 -10.201000 -29.671491 0.000000 0.000000 0.000000 18.751002 10.406202 -21.959577 -6.257008 -14.672069 46.003151 -1.536767 7.561622 -22.191752 -1.133212 6.742906 -18.962509 -5.004583 3.510281 16.140936 -0.970654 3.540553 1.914615 1.010528 1.785314 -7.238646 -20.109802 -17.317526 -4.724608 27.170576 -24.866875 2.817998 8.822274 -11.945258 7.917648 0.000000 0.000000 0.000000 56.314341 3.265233 24.129494 10.728326 -17.870646 1.691594 3.988172 17.279936 -25.193160 0.000000 0.000000 0.000000 -7.125000 0.000000 0.000000 -26.411566 53.213388 5.647260 0.000000 0.000000 0.000000 -67.998120 -24.035945 -67.614743 -15.583533 -24.952427 -3.468613 -10.171951 -53.848006 12.923896 0.000000 0.000000 0.000000 7.125000 0.000000 0.000000 15.496434 42.525771 0.814652
